<svg xmlns="http://www.w3.org/2000/svg" viewBox="0 0 24 24">
  <path
    d="M3 10.417c0-3.198 0-4.796.378-5.334C3.755 4.545 5.258 4.03 8.265 3l.573-.196C10.405 2.268 11.189 2 12 2c.811 0 1.595.268 3.162.804l.573.196c3.007 1.03 4.51 1.544 4.888 2.083.378.538.378 2.137.378 5.334 0 .483 0 1.007 0 1.575 0 5.638-4.239 8.374-6.899 9.536-.721.315-1.082.473-2.082.473-1 0-1.36-.158-2.082-.473C7.239 20.365 3 17.629 3 11.991c0-.568 0-1.092 0-1.574Z"
    fill="none"
    stroke="currentColor"
    stroke-width="1"
  />
  <path
    d="m9.5 12.4 1.429 1.6L14.5 10"
    fill="none"
    stroke="currentColor"
    stroke-width="1"
    stroke-linecap="round"
    stroke-linejoin="round"
  />
</svg>
